<?xml version="1.0" encoding="UTF-8" standalone="no"?>
<svg width="37px" height="40px" viewBox="0 0 37 40" version="1.1" xmlns="http://www.w3.org/2000/svg" xmlns:xlink="http://www.w3.org/1999/xlink" xmlns:sketch="http://www.bohemiancoding.com/sketch/ns">
    <!-- Generator: Sketch 3.3.3 (12072) - http://www.bohemiancoding.com/sketch -->
    <title>Shape Copy</title>
    <desc>Created with Sketch.</desc>
    <defs></defs>
    <g id="Page-1" stroke="none" stroke-width="1" fill="none" fill-rule="evenodd" sketch:type="MSPage">
        <g id="Desktop-HD-Copy-21" sketch:type="MSArtboardGroup" transform="translate(-1076.000000, -1448.333209)" fill="#754AF4">
            <g id="Group" sketch:type="MSLayerGroup" transform="translate(124.000000, 1300.000000)">
                <path d="M986.267857,182.85343 L960.196429,182.85343 C958.756634,182.85343 957.589286,181.688037 957.589286,180.246938 L957.589286,151.568367 C957.589286,150.127921 958.756634,148.961224 960.196429,148.961224 L986.267857,148.961224 C987.707652,148.961224 988.875,150.127921 988.875,151.568367 L988.875,180.246938 C988.875,181.688688 987.707652,182.85343 986.267857,182.85343 L986.267857,182.85343 Z M986.267857,152.87259 C986.267857,152.152367 985.684509,151.569019 984.964286,151.569019 L961.5,151.569019 C960.780429,151.569019 960.196429,152.152367 960.196429,152.87259 L960.196429,178.944019 C960.196429,179.662938 960.780429,180.24759 961.5,180.24759 L984.964286,180.24759 C985.684509,180.24759 986.267857,179.66359 986.267857,178.944019 L986.267857,152.87259 L986.267857,152.87259 Z M982.357143,175.033305 L964.107143,175.033305 C963.38692,175.033305 962.803571,174.449305 962.803571,173.72843 C962.803571,173.008858 963.387571,172.424858 964.107143,172.424858 L982.357143,172.424858 C983.076714,172.424858 983.660714,173.008858 983.660714,173.72843 C983.660714,174.449305 983.077366,175.033305 982.357143,175.033305 L982.357143,175.033305 Z M982.357143,167.211224 L964.107143,167.211224 C963.38692,167.211224 962.803571,166.627224 962.803571,165.907653 C962.803571,165.188081 963.387571,164.604081 964.107143,164.604081 L982.357143,164.604081 C983.076714,164.604081 983.660714,165.188081 983.660714,165.907653 C983.660714,166.627224 983.077366,167.211224 982.357143,167.211224 L982.357143,167.211224 Z M974.535714,159.389796 L964.107143,159.389796 C963.38692,159.389796 962.803571,158.806447 962.803571,158.086876 C962.803571,157.366653 963.387571,156.783305 964.107143,156.783305 L974.535714,156.783305 C975.255286,156.783305 975.839286,157.366653 975.839286,158.086876 C975.839286,158.806447 975.255938,159.389796 974.535714,159.389796 L974.535714,159.389796 Z M983.660714,188.069019 L954.982143,188.069019 C953.542348,188.069019 952.375,186.901671 952.375,185.461224 L952.375,156.783305 C952.375,155.34351 953.542348,154.177465 954.982143,154.177465 L954.982143,185.461224 L986.267857,185.461224 C986.267857,186.901671 985.100509,188.069019 983.660714,188.069019 L983.660714,188.069019 Z" id="Shape-Copy" sketch:type="MSShapeGroup"></path>
            </g>
        </g>
    </g>
</svg>