<?xml version="1.0" encoding="UTF-8" standalone="no"?>
<svg width="46px" height="40px" viewBox="0 0 46 40" version="1.1" xmlns="http://www.w3.org/2000/svg" xmlns:xlink="http://www.w3.org/1999/xlink" xmlns:sketch="http://www.bohemiancoding.com/sketch/ns">
    <!-- Generator: Sketch 3.3.3 (12072) - http://www.bohemiancoding.com/sketch -->
    <title>Shape</title>
    <desc>Created with Sketch.</desc>
    <defs></defs>
    <g id="Page-1" stroke="none" stroke-width="1" fill="none" fill-rule="evenodd" sketch:type="MSPage">
        <g id="Desktop-HD-Copy-21" sketch:type="MSArtboardGroup" transform="translate(-759.000000, -1448.333209)" fill="#0ADCC0">
            <g id="Group" sketch:type="MSLayerGroup" transform="translate(124.000000, 1300.000000)">
                <path d="M679.362816,182.938006 C679.362816,182.938006 678.788964,183.433094 671.80569,183.663057 C671.980096,182.779071 671.956186,181.849375 671.794438,180.956247 L676.096219,180.968202 C678.301611,180.196737 677.766438,176.436459 676.096219,175.691717 C674.896474,175.158653 669.955439,173.845686 667.036951,173.091098 L666.649461,171.814699 L666.649461,169.939835 C669.082003,168.025588 670.526478,164.067696 670.526478,160.450178 C670.526478,155.464838 669.354864,151.421853 663.498197,151.421853 C663.067105,151.421853 662.712667,151.487959 662.330802,151.530857 C661.133167,150.755172 659.585314,150.270633 657.629575,150.12506 C659.068425,149.193957 660.938367,148.616589 663.497494,148.616589 C671.558146,148.616589 673.349324,153.877603 673.349324,160.365788 C673.349324,164.538874 671.714268,168.924341 668.979328,171.542541 C671.881641,172.26056 677.596252,173.745824 678.432416,174.506037 C680.291106,176.190321 681.220099,180.407009 679.362816,182.938006 L679.362816,182.938006 Z M662.098026,163.830701 C662.098026,168.297746 660.412336,172.983501 657.608478,175.731802 C660.473518,176.439272 666.334405,177.954776 667.181821,178.724131 C669.039808,180.411228 669.968098,184.627213 668.110814,187.156803 C668.110814,187.156803 667.181821,188 652.321443,188 C637.460363,188 636.392829,187.156803 636.392829,187.156803 C634.521481,184.626509 635.463836,180.411228 637.335887,178.724131 C638.210027,177.936491 643.98582,176.462479 646.909934,175.753603 C644.090604,173.010224 642.393662,168.311107 642.393662,163.830701 C642.393662,156.983155 644.185543,151.430996 652.246196,151.430996 C660.306848,151.430996 662.098026,156.983155 662.098026,163.830701 L662.098026,163.830701 Z M652.246196,154.260874 C646.388826,154.260874 645.217211,158.588675 645.217211,163.930563 C645.217211,167.804064 646.660983,172.042552 649.093526,174.093933 L649.093526,176.035606 L648.752449,177.165729 C646.267867,177.886561 641.331051,179.344398 640.056059,179.912624 C638.378104,180.659476 637.103112,184.294575 639.617231,185.185593 C639.622857,185.185593 652.075306,185.155353 652.075306,185.155353 L664.844218,185.185593 C667.04961,184.416238 666.514437,180.657366 664.844218,179.912624 C663.644473,179.376747 658.702735,178.065186 655.78495,177.310599 L655.397459,176.035606 L655.397459,174.095339 C657.830001,172.044662 659.274477,167.805471 659.274477,163.930563 C659.274477,158.588675 658.103566,154.260874 652.246196,154.260874 L652.246196,154.260874 Z" id="Shape" sketch:type="MSShapeGroup"></path>
            </g>
        </g>
    </g>
</svg>