<?xml version="1.0" encoding="UTF-8" standalone="no"?>
<svg width="38px" height="43px" viewBox="0 0 38 43" version="1.1" xmlns="http://www.w3.org/2000/svg" xmlns:xlink="http://www.w3.org/1999/xlink" xmlns:sketch="http://www.bohemiancoding.com/sketch/ns">
    <!-- Generator: Sketch 3.3.3 (12072) - http://www.bohemiancoding.com/sketch -->
    <title>Shape</title>
    <desc>Created with Sketch.</desc>
    <defs></defs>
    <g id="Page-1" stroke="none" stroke-width="1" fill="none" fill-rule="evenodd" sketch:type="MSPage">
        <g id="Desktop-HD-Copy-21" sketch:type="MSArtboardGroup" transform="translate(-441.000000, -1448.333209)" fill="#F4864A">
            <g id="Group" sketch:type="MSLayerGroup" transform="translate(124.000000, 1300.000000)">
                <path d="M351.767857,190.452551 L320.482143,190.452551 C319.042348,190.452551 317.875,189.285855 317.875,187.846712 L317.875,151.346061 C317.875,149.905614 319.042348,148.738266 320.482143,148.738266 L351.767857,148.738266 C353.207652,148.738266 354.375,149.905614 354.375,151.346061 L354.375,187.846712 C354.375652,189.285855 353.207652,190.452551 351.767857,190.452551 L351.767857,190.452551 Z M351.767857,152.64898 C351.767857,151.928757 351.183857,151.346061 350.464285,151.346061 L321.785714,151.346061 C321.065491,151.346061 320.482143,151.928757 320.482143,152.64898 L320.482143,186.543141 C320.482143,187.26206 321.065491,187.846712 321.785714,187.846712 L350.464285,187.846712 C351.183857,187.846712 351.767857,187.26206 351.767857,186.543141 L351.767857,152.64898 L351.767857,152.64898 Z M346.553571,174.810346 L325.696429,174.810346 C324.256634,174.810346 323.089286,173.642998 323.089286,172.203203 L323.089286,156.560998 C323.089286,155.120552 324.256634,153.953855 325.696429,153.953855 L346.553571,153.953855 C347.993366,153.953855 349.160714,155.120552 349.160714,156.560998 L349.160714,172.203203 C349.161366,173.642998 347.993366,174.810346 346.553571,174.810346 L346.553571,174.810346 Z M346.553571,157.863266 C346.553571,157.144346 345.969571,156.560998 345.25,156.560998 L327,156.560998 C326.279777,156.560998 325.696429,157.144346 325.696429,157.863266 L325.696429,170.900284 C325.696429,171.619855 326.279777,172.203203 327,172.203203 L345.25,172.203203 C345.969571,172.203203 346.553571,171.619855 346.553571,170.900284 L346.553571,157.863266 L346.553571,157.863266 Z M325.69708,177.416837 L328.304223,177.416837 L328.304223,180.025284 L330.911366,180.025284 L330.911366,182.631123 L328.304223,182.631123 L328.304223,185.239569 L325.69708,185.239569 L325.69708,182.631123 L323.089937,182.631123 L323.089937,180.025284 L325.69708,180.025284 L325.69708,177.416837 L325.69708,177.416837 Z M341.332768,178.694337 L335.91317,185.257819 L333.530241,183.989444 L338.949839,177.425962 L341.332768,178.694337 L341.332768,178.694337 Z M349.154196,178.694337 L343.734598,185.257819 L341.351669,183.989444 L346.771268,177.425962 L349.154196,178.694337 L349.154196,178.694337 Z" id="Shape" sketch:type="MSShapeGroup"></path>
            </g>
        </g>
    </g>
</svg>