<?xml version="1.0" encoding="UTF-8" standalone="no"?>
<svg width="38px" height="40px" viewBox="0 0 38 40" version="1.1" xmlns="http://www.w3.org/2000/svg" xmlns:xlink="http://www.w3.org/1999/xlink" xmlns:sketch="http://www.bohemiancoding.com/sketch/ns">
    <!-- Generator: Sketch 3.3.3 (12072) - http://www.bohemiancoding.com/sketch -->
    <title>Shape</title>
    <desc>Created with Sketch.</desc>
    <defs></defs>
    <g id="Page-1" stroke="none" stroke-width="1" fill="none" fill-rule="evenodd" sketch:type="MSPage">
        <g id="Desktop-HD-Copy-21" sketch:type="MSArtboardGroup" transform="translate(-124.000000, -1448.333209)" fill="#4997F4">
            <g id="Group" sketch:type="MSLayerGroup" transform="translate(124.000000, 1300.000000)">
                <path d="M35.1719753,187.935422 L3.32478395,187.935422 C1.97189076,187.935422 0.875,186.839143 0.875,185.485638 L0.875,160.989023 L0.875,158.538627 L0.875,153.638446 C0.875,152.285553 1.97189076,151.188662 3.32478395,151.188662 L10.6741358,151.188662 L10.6741358,148.738266 L13.1239197,148.738266 L13.1239197,151.188662 L25.3728395,151.188662 L25.3728395,148.738266 L27.8226234,148.738266 L27.8226234,151.188662 L36.3968673,151.188662 C37.7497605,151.188662 37.6217592,152.285553 37.6217592,153.638446 L37.6217592,158.538627 L37.6217592,160.989023 L37.6217592,185.485638 C37.6223717,186.839143 36.5248685,187.935422 35.1719753,187.935422 L35.1719753,187.935422 Z M35.1719753,154.864563 C35.1719753,154.186586 34.6232237,153.638446 33.9470833,153.638446 L27.8226234,153.638446 L27.8226234,156.089455 L25.3728395,156.089455 L25.3728395,153.638446 L13.1239197,153.638446 L13.1239197,156.089455 L10.6741358,156.089455 L10.6741358,153.638446 L4.54967592,153.638446 C3.87292311,153.638446 3.3241715,154.186586 3.3241715,154.864563 L3.3241715,158.538627 L35.1713628,158.538627 L35.1713628,154.864563 L35.1719753,154.864563 Z M35.1719753,160.989023 L3.32478395,160.989023 L3.32478395,184.260746 C3.32478395,184.937499 3.87353555,185.485638 4.55028837,185.485638 L33.9470833,185.485638 C34.6232237,185.485638 35.1719753,184.937499 35.1719753,184.260746 L35.1719753,160.989023 L35.1719753,160.989023 Z M25.3734519,175.685889 L32.7228038,175.685889 L32.7228038,183.035854 L25.3734519,183.035854 L25.3734519,175.685889 L25.3734519,175.685889 Z M27.8226234,180.586682 L30.2724074,180.586682 L30.2724074,178.135673 L27.8226234,178.135673 L27.8226234,180.586682 L27.8226234,180.586682 Z M25.3734519,165.887979 L32.7228038,165.887979 L32.7228038,173.236106 L25.3734519,173.236106 L25.3734519,165.887979 L25.3734519,165.887979 Z M27.8226234,170.786934 L30.2724074,170.786934 L30.2724074,168.33715 L27.8226234,168.33715 L27.8226234,170.786934 L27.8226234,170.786934 Z M15.5743161,175.685889 L22.923668,175.685889 L22.923668,183.035854 L15.5743161,183.035854 L15.5743161,175.685889 L15.5743161,175.685889 Z M18.0241001,180.586682 L20.473884,180.586682 L20.473884,178.135673 L18.0241001,178.135673 L18.0241001,180.586682 L18.0241001,180.586682 Z M15.5743161,165.887979 L22.923668,165.887979 L22.923668,173.236106 L15.5743161,173.236106 L15.5743161,165.887979 L15.5743161,165.887979 Z M18.0241001,170.786934 L20.473884,170.786934 L20.473884,168.33715 L18.0241001,168.33715 L18.0241001,170.786934 L18.0241001,170.786934 Z M5.77518035,175.685889 L13.1245322,175.685889 L13.1245322,183.035854 L5.77518035,183.035854 L5.77518035,175.685889 L5.77518035,175.685889 Z M8.22496429,180.586682 L10.6747482,180.586682 L10.6747482,178.135673 L8.22496429,178.135673 L8.22496429,180.586682 L8.22496429,180.586682 Z M5.77518035,165.887979 L13.1245322,165.887979 L13.1245322,173.236106 L5.77518035,173.236106 L5.77518035,165.887979 L5.77518035,165.887979 Z M8.22496429,170.786934 L10.6747482,170.786934 L10.6747482,168.33715 L8.22496429,168.33715 L8.22496429,170.786934 L8.22496429,170.786934 Z" id="Shape" sketch:type="MSShapeGroup"></path>
            </g>
        </g>
    </g>
</svg>